Coordinates
version=1
nRows=12
nColumns=28
inDegrees=yes

Units are S.I. units (second, meters, Newtons, ...)
Angles are in degrees.

endheader
time	pelvis_tilt	pelvis_list	pelvis_rotation	pelvis_tx	pelvis_ty	pelvis_tz	hip_flexion_r	hip_adduction_r	hip_rotation_r	knee_angle_r	ankle_angle_r	subtalar_angle_r	mtp_angle_r	hip_flexion_l	hip_adduction_l	hip_rotation_l	knee_angle_l	socket_flexion	socket_adduction	socket_rotation	socket_tx	socket_ty	socket_tz	foot_flex	lumbar_extension	lumbar_bending	lumbar_rotation
      0.31666667	      2.68013766	     -1.55187834	     -4.43950707	     -0.42043515	      1.03221491	      0.26545835	     14.01995952	      1.02289378	     -3.50706100	    -60.71688831	      6.49901203	    -18.68971012	     -3.00143822	     -2.85046452	     -0.54804580	     -6.82177931	     -1.57614065	      1.88637044	      0.29454649	     15.47978149	      0.00000000	     -0.00839521	      0.00000000	     -0.63423232	    -12.44129730	     -1.67924175	      2.61363198
      0.32083333	      2.65589757	     -1.89581491	     -4.12214574	     -0.41482635	      1.03270273	      0.26489134	     14.33454102	      1.35502796	     -3.85406408	    -59.93574353	      7.15234304	    -18.62832340	     -2.92062294	     -3.22081452	     -0.90824842	     -6.89002476	     -1.44533723	      1.92352655	      0.31889313	     15.86202189	      0.00000000	     -0.00848308	      0.00000000	     -0.42598170	    -12.40988358	     -1.19154014	      2.41700906
      0.32500000	      2.67881969	     -1.98394435	     -3.99507580	     -0.40961655	      1.03319730	      0.26475876	     14.72487794	      1.46539488	     -3.94894006	    -59.27443356	      7.33220439	    -18.56831199	     -2.92589213	     -3.57971846	     -0.98550777	     -6.89799331	     -1.44422146	      1.85932778	      0.31091137	     15.95829537	      0.00000000	     -0.00822086	      0.00000000	     -0.31871122	    -12.46033782	     -1.07730680	      2.31563462
      0.32916667	      3.03674700	     -2.40382055	     -3.70974975	     -0.40432570	      1.03408350	      0.26415727	     14.64382383	      1.82268235	     -4.32832249	    -58.46308930	      7.98039748	    -18.14226430	     -4.00540852	     -4.45136371	     -1.39002170	     -6.85678258	     -1.03717271	      2.02865594	      0.38832797	     16.17782981	      0.00000000	     -0.00839434	      0.00000000	     -0.21460756	    -12.93996863	     -0.49130353	      1.87642063
      0.33333333	      3.03313212	     -2.41487772	     -3.60797326	     -0.39927949	      1.03443340	      0.26402662	     15.09109468	      1.84105144	     -4.40235152	    -57.80398088	      8.13877564	    -18.16876300	     -3.99884051	     -4.74953500	     -1.38251787	     -6.86849800	     -1.06030086	      1.97145863	      0.36510359	     16.22336414	      0.00000000	     -0.00808573	      0.00000000	     -0.11509926	    -12.98540084	     -0.46722781	      1.86166217
      0.33750000	      3.08139141	     -2.77992335	     -3.32507069	     -0.39384753	      1.03481921	      0.26354512	     15.31839731	      2.17052988	     -4.77650838	    -56.92137598	      8.47293844	    -18.10199953	     -4.08593294	     -5.18055938	     -1.78001091	     -6.85480296	     -0.96475873	      1.95584652	      0.39152215	     16.51081800	      0.00000000	     -0.00831960	      0.00000000	     -0.00086872	    -13.06220394	      0.04318330	      1.57985567
      0.34166667	      3.08733443	     -2.77482034	     -3.24061286	     -0.38886333	      1.03512267	      0.26342276	     15.73724994	      2.16229226	     -4.85219137	    -56.20333415	      8.61623273	    -18.13647985	     -4.09695405	     -5.48210564	     -1.75424425	     -6.86825626	     -0.99079393	      1.90283391	      0.36609151	     16.53790419	      0.00000000	     -0.00800188	      0.00000000	      0.10990290	    -13.12617850	      0.04724752	      1.55982881
      0.34583333	      3.19034082	     -3.09663674	     -2.94075102	     -0.38343109	      1.03553310	      0.26294061	     15.87598639	      2.42297339	     -5.26886739	    -55.24851456	      8.93336414	    -18.16870623	     -4.25477131	     -5.97861518	     -2.10646347	     -6.84911746	     -0.86719596	      1.89665166	      0.39313992	     16.81959916	      0.00000000	     -0.00812480	      0.00000000	      0.24033679	    -13.24854831	      0.50773478	      1.30689455
      0.35000000	      3.20042501	     -3.08751439	     -2.87560219	     -0.37848492	      1.03577454	      0.26288320	     16.25996278	      2.41169623	     -5.33590075	    -54.44898603	      9.05894911	    -18.19609848	     -4.28656335	     -6.29039041	     -2.08321985	     -6.85029246	     -0.89001959	      1.84494245	      0.36928909	     16.84722731	      0.00000000	     -0.00781922	      0.00000000	      0.35479843	    -13.31421485	      0.49857836	      1.27531685
      0.35416667	      3.20688459	     -3.12235566	     -2.74857738	     -0.37331308	      1.03601011	      0.26276355	     16.58126434	      2.44000353	     -5.47961086	    -53.57491897	      9.23427858	    -18.24841950	     -4.32986106	     -6.62445648	     -2.11536837	     -6.85011302	     -0.87091037	      1.79242067	      0.35951496	     16.94150446	      0.00000000	     -0.00758539	      0.00000000	      0.48919786	    -13.33991738	      0.55652678	      1.23110321
      0.35833333	      3.21850603	     -3.22257920	     -2.58004230	     -0.36814808	      1.03621631	      0.26255050	     16.85929370	      2.50882117	     -5.70367884	    -52.61370294	      9.43054494	    -18.31768416	     -4.40369621	     -6.97450427	     -2.22529207	     -6.85537456	     -0.81642414	      1.76922977	      0.35245355	     17.08530357	      0.00000000	     -0.00740310	      0.00000000	      0.62233110	    -13.38888971	      0.70298598	      1.15338692
      0.36250000	      3.46212060	     -3.68100916	     -2.23389882	     -0.36286427	      1.03673762	      0.26196625	     16.74258277	      2.89577843	     -6.20315779	    -51.40799697	      9.58304284	    -18.44355825	     -4.83499946	     -7.64779140	     -2.73732505	     -6.80433101	     -0.58512116	      1.82714168	      0.41658748	     17.34185065	      0.00000000	     -0.00768719	      0.00000000	      0.72607731	    -13.71349911	      1.36051191	      0.76043149
